# xmcd
#
# Track frame offsets:
# 150
# 13655
# 25241
# 33390
# 48960
# 56915
# 66300
# 77105
# 90028
# 114446
# 129666
# 147157
# 152171
# 159356
# 169601
# 179642
#
# Disc length: 2567 seconds
#
#
# Revision: 0
# Processed by: cddbd v1.5.1PL2 Copyright (c) Steve Scherf et al.
# Submitted via: FreeRIP 2.944 
#
DISCID=cd0a0510
DTITLE=Jacob Haller - Imaginary Internet Man
DYEAR=2005
DGENRE=Rock
TTITLE0=Eleven Past Two
TTITLE1=Ezra's Song
TTITLE2=Editors at War
TTITLE3=Pickle Postcard
TTITLE4=Interests are for Jerks
TTITLE5=Fuck the Bees
TTITLE6=Kitten Knitting Blues
TTITLE7=Walking Stick Making
TTITLE8=Hybrid Car (With Chris Monti)
TTITLE9=Reqind (Waitsian)
TTITLE10=Lady Luck (With Chris Monti)
TTITLE11="Pumpkin, Mrs. Farnsworth"
TTITLE12=My Little Lobster
TTITLE13=Pigskin Loofah (Rip cut)
TTITLE14=I'm a Guy
TTITLE15=Ballad of the Eire Canal
EXTD=
EXTT0=
EXTT1=
EXTT2=
EXTT3=
EXTT4=
EXTT5=
EXTT6=
EXTT7=
EXTT8=
EXTT9=
EXTT10=
EXTT11=
EXTT12=
EXTT13=
EXTT14=
EXTT15=
PLAYORDER=
